<svg width="26" height="27" viewBox="0 0 26 27" fill="none" xmlns="http://www.w3.org/2000/svg">
<path fill-rule="evenodd" clip-rule="evenodd" d="M0 13.5002C0 6.4346 5.7344 0.700195 12.8 0.700195C19.8656 0.700195 25.6 6.4346 25.6 13.5002C25.6 20.5658 19.8656 26.3002 12.8 26.3002C5.7344 26.3002 0 20.5658 0 13.5002ZM14.08 14.7802H17.92C18.624 14.7802 19.2 14.2042 19.2 13.5002C19.2 12.7962 18.624 12.2202 17.92 12.2202H14.08V8.3802C14.08 7.6762 13.504 7.1002 12.8 7.1002C12.096 7.1002 11.52 7.6762 11.52 8.3802V12.2202H7.68C6.976 12.2202 6.4 12.7962 6.4 13.5002C6.4 14.2042 6.976 14.7802 7.68 14.7802H11.52V18.6202C11.52 19.3242 12.096 19.9002 12.8 19.9002C13.504 19.9002 14.08 19.3242 14.08 18.6202V14.7802Z" fill="#FF4339"/>
</svg>
