<svg width="24" height="18" viewBox="0 0 24 18" fill="none" xmlns="http://www.w3.org/2000/svg">
<path fill-rule="evenodd" clip-rule="evenodd" d="M15.2727 8.72727C17.6836 8.72727 19.6364 6.77455 19.6364 4.36364C19.6364 1.95273 17.6836 0 15.2727 0C12.8618 0 10.9091 1.95273 10.9091 4.36364C10.9091 6.77455 12.8618 8.72727 15.2727 8.72727ZM5.45455 6.54545V4.36364C5.45455 3.76364 4.96364 3.27273 4.36364 3.27273C3.76364 3.27273 3.27273 3.76364 3.27273 4.36364V6.54545H1.09091C0.490909 6.54545 0 7.03636 0 7.63636C0 8.23636 0.490909 8.72727 1.09091 8.72727H3.27273V10.9091C3.27273 11.5091 3.76364 12 4.36364 12C4.96364 12 5.45455 11.5091 5.45455 10.9091V8.72727H7.63636C8.23636 8.72727 8.72727 8.23636 8.72727 7.63636C8.72727 7.03636 8.23636 6.54545 7.63636 6.54545H5.45455ZM6.54545 15.2727C6.54545 12.3709 12.36 10.9091 15.2727 10.9091C18.1855 10.9091 24 12.3709 24 15.2727V16.3636C24 16.9636 23.5091 17.4545 22.9091 17.4545H7.63636C7.03636 17.4545 6.54545 16.9636 6.54545 16.3636V15.2727Z" fill="#F43334"/>
</svg>
