<svg width="23" height="31" viewBox="0 0 23 31" fill="none" xmlns="http://www.w3.org/2000/svg">
<path d="M11.5985 19.4731C14.2365 19.4731 16.3659 17.3436 16.3659 14.7056V5.17076C16.3659 2.53278 14.2365 0.40332 11.5985 0.40332C8.96051 0.40332 6.83105 2.53278 6.83105 5.17076V14.7056C6.83105 17.3436 8.96051 19.4731 11.5985 19.4731Z" fill="#FF4339"/>
<path d="M20.9903 14.7061C20.2116 14.7061 19.56 15.2781 19.4329 16.0568C18.7814 19.7913 15.5236 22.6518 11.5984 22.6518C7.67321 22.6518 4.41546 19.7913 3.76391 16.0568C3.63678 15.2781 2.98523 14.7061 2.20654 14.7061C1.23716 14.7061 0.474372 15.5642 0.617395 16.5177C1.39608 21.2851 5.21003 25.0196 10.0093 25.703V29.0084C10.0093 29.8824 10.7244 30.5975 11.5984 30.5975C12.4724 30.5975 13.1876 29.8824 13.1876 29.0084V25.703C17.9868 25.0196 21.8007 21.2851 22.5794 16.5177C22.7383 15.5642 21.9596 14.7061 20.9903 14.7061Z" fill="#FF4339"/>
</svg>
