<svg width="31" height="31" viewBox="0 0 31 31" fill="none" xmlns="http://www.w3.org/2000/svg">
<path fill-rule="evenodd" clip-rule="evenodd" d="M25.8334 6.75H21.7388L20.1371 5.0625C19.6592 4.55 18.9617 4.25 18.2384 4.25H12.7617C12.0384 4.25 11.3409 4.55 10.85 5.0625L9.26129 6.75H5.16671C3.74587 6.75 2.58337 7.875 2.58337 9.25V24.25C2.58337 25.625 3.74587 26.75 5.16671 26.75H25.8334C27.2542 26.75 28.4167 25.625 28.4167 24.25V9.25C28.4167 7.875 27.2542 6.75 25.8334 6.75ZM15.5 13C13.3599 13 11.625 14.6789 11.625 16.75C11.625 18.8211 13.3599 20.5 15.5 20.5C17.6401 20.5 19.375 18.8211 19.375 16.75C19.375 14.6789 17.6401 13 15.5 13ZM9.04171 16.75C9.04171 20.2 11.935 23 15.5 23C19.065 23 21.9584 20.2 21.9584 16.75C21.9584 13.3 19.065 10.5 15.5 10.5C11.935 10.5 9.04171 13.3 9.04171 16.75Z" fill="#FF4339"/>
</svg>
