<svg width="45" height="45" viewBox="0 0 45 45" fill="none" xmlns="http://www.w3.org/2000/svg">
<path fill-rule="evenodd" clip-rule="evenodd" d="M28.125 16.875C28.125 19.9828 25.6078 22.5 22.5 22.5C19.3922 22.5 16.875 19.9828 16.875 16.875C16.875 13.7672 19.3922 11.25 22.5 11.25C25.6078 11.25 28.125 13.7672 28.125 16.875ZM11.25 30.9375C11.25 27.1969 18.7453 25.3125 22.5 25.3125C26.2547 25.3125 33.75 27.1969 33.75 30.9375V32.3438C33.75 33.1172 33.1172 33.75 32.3438 33.75H12.6562C11.8828 33.75 11.25 33.1172 11.25 32.3438V30.9375Z" fill="#F43334"/>
<circle cx="22.5" cy="22.5" r="22" stroke="#757575"/>
</svg>
