<svg width="32" height="33" viewBox="0 0 32 33" fill="none" xmlns="http://www.w3.org/2000/svg">
<path d="M28.6667 5.83311H25.1112V8.49978C25.1112 8.75658 25.0606 9.01088 24.9623 9.24814C24.864 9.48539 24.72 9.70097 24.5384 9.88256C24.3568 10.0642 24.1412 10.2082 23.904 10.3065C23.6667 10.4047 23.4124 10.4553 23.1556 10.4553C22.8988 10.4553 22.6445 10.4047 22.4072 10.3065C22.17 10.2082 21.9544 10.0642 21.7728 9.88256C21.5912 9.70097 21.4472 9.48539 21.3489 9.24814C21.2506 9.01088 21.2 8.75658 21.2 8.49978V5.83311H10.8445V8.49978C10.8445 9.01842 10.6385 9.51583 10.2717 9.88256C9.90498 10.2493 9.40757 10.4553 8.88893 10.4553C8.37028 10.4553 7.87288 10.2493 7.50614 9.88256C7.1394 9.51583 6.93337 9.01842 6.93337 8.49978V5.83311H3.37782C3.16628 5.8307 2.95641 5.87074 2.76062 5.95085C2.56483 6.03097 2.38709 6.14953 2.23792 6.29953C2.08874 6.44953 1.97117 6.62793 1.89214 6.82416C1.81311 7.02039 1.77424 7.23048 1.77782 7.442V27.3353C1.77428 27.5431 1.81172 27.7496 1.88799 27.9429C1.96426 28.1362 2.07786 28.3126 2.22232 28.462C2.36677 28.6114 2.53924 28.7309 2.72988 28.8136C2.92051 28.8964 3.12558 28.9407 3.33337 28.9442H28.6667C28.8745 28.9407 29.0796 28.8964 29.2702 28.8136C29.4608 28.7309 29.6333 28.6114 29.7778 28.462C29.9222 28.3126 30.0358 28.1362 30.1121 27.9429C30.1884 27.7496 30.2258 27.5431 30.2223 27.3353V7.442C30.2258 7.23421 30.1884 7.02776 30.1121 6.83444C30.0358 6.64113 29.9222 6.46473 29.7778 6.31532C29.6333 6.16592 29.4608 6.04643 29.2702 5.96369C29.0796 5.88096 28.8745 5.83658 28.6667 5.83311ZM8.88893 23.6109H7.11115V21.8331H8.88893V23.6109ZM8.88893 19.1664H7.11115V17.3887H8.88893V19.1664ZM8.88893 14.722H7.11115V12.9442H8.88893V14.722ZM14.2223 23.6109H12.4445V21.8331H14.2223V23.6109ZM14.2223 19.1664H12.4445V17.3887H14.2223V19.1664ZM14.2223 14.722H12.4445V12.9442H14.2223V14.722ZM19.5556 23.6109H17.7778V21.8331H19.5556V23.6109ZM19.5556 19.1664H17.7778V17.3887H19.5556V19.1664ZM19.5556 14.722H17.7778V12.9442H19.5556V14.722ZM24.8889 23.6109H23.1112V21.8331H24.8889V23.6109ZM24.8889 19.1664H23.1112V17.3887H24.8889V19.1664ZM24.8889 14.722H23.1112V12.9442H24.8889V14.722Z" fill="#FF4339"/>
<path d="M8.88889 9.38846C9.12464 9.38846 9.35073 9.2948 9.51743 9.12811C9.68413 8.96141 9.77778 8.73531 9.77778 8.49957V3.16623C9.77778 2.93048 9.68413 2.70439 9.51743 2.53769C9.35073 2.37099 9.12464 2.27734 8.88889 2.27734C8.65314 2.27734 8.42705 2.37099 8.26035 2.53769C8.09365 2.70439 8 2.93048 8 3.16623V8.49957C8 8.73531 8.09365 8.96141 8.26035 9.12811C8.42705 9.2948 8.65314 9.38846 8.88889 9.38846Z" fill="#C8CAD5"/>
<path d="M23.1111 9.38846C23.3468 9.38846 23.5729 9.2948 23.7396 9.12811C23.9063 8.96141 23.9999 8.73531 23.9999 8.49957V3.16623C23.9999 2.93048 23.9063 2.70439 23.7396 2.53769C23.5729 2.37099 23.3468 2.27734 23.1111 2.27734C22.8753 2.27734 22.6492 2.37099 22.4825 2.53769C22.3158 2.70439 22.2222 2.93048 22.2222 3.16623V8.49957C22.2222 8.73531 22.3158 8.96141 22.4825 9.12811C22.6492 9.2948 22.8753 9.38846 23.1111 9.38846Z" fill="#C8CAD5"/>
</svg>
