<svg width="68" height="70" viewBox="0 0 68 70" fill="none" xmlns="http://www.w3.org/2000/svg">
<path fill-rule="evenodd" clip-rule="evenodd" d="M33.6781 18.1333C31.9289 18.1327 30.2179 18.6516 28.7567 19.6259C27.2955 20.6001 26.1481 21.9868 25.4564 23.6147C24.7647 25.2426 24.5591 27.0402 24.865 28.7853C25.1708 30.5303 25.9747 32.1463 27.1773 33.4333C24.6766 34.8345 22.6828 37.008 21.4862 39.6373C20.2895 42.2665 19.9525 45.2142 20.5243 48.051C20.627 48.5634 20.9014 49.0241 21.3009 49.355C21.7004 49.6859 22.2006 49.8666 22.7166 49.8666H44.6395C45.1556 49.8666 45.6557 49.6859 46.0553 49.355C46.4548 49.0241 46.7291 48.5634 46.8318 48.051C47.4041 45.2139 47.0674 42.2657 45.8707 39.636C44.674 37.0062 42.6799 34.8324 40.1789 33.431C41.3807 32.1439 42.184 30.5281 42.4894 28.7835C42.7948 27.0388 42.589 25.2417 41.8974 23.6143C41.2058 21.9869 40.0588 20.6004 38.598 19.6263C37.1373 18.6522 35.4268 18.1332 33.6781 18.1333ZM43.9326 31.2324C44.5277 30.0174 44.8632 28.6484 44.8632 27.2C44.8632 25.7516 44.5277 24.3825 43.9326 23.1676C44.4583 22.4508 45.1182 21.846 45.8746 21.3876C46.631 20.9292 47.4691 20.6263 48.3411 20.4961C49.213 20.3659 50.1017 20.411 50.9564 20.6289C51.8112 20.8467 52.6152 21.233 53.3226 21.7656C54.03 22.2983 54.6269 22.9669 55.0793 23.7334C55.5317 24.4998 55.8306 25.349 55.9591 26.2325C56.0876 27.1159 56.0431 28.0164 55.8281 28.8825C55.6131 29.7485 55.2319 30.5632 54.7062 31.28C55.8175 32.1245 56.7195 33.2196 57.3408 34.4786C57.962 35.7375 58.2855 37.1257 58.2855 38.5333V40.8C58.2855 41.4011 58.0498 41.9777 57.6302 42.4027C57.2107 42.8278 56.6417 43.0666 56.0484 43.0666H49.1516C48.8143 41.0514 48.0335 39.139 46.867 37.4713C45.7006 35.8036 44.1785 34.4235 42.4137 33.4333C42.9931 32.8132 43.4833 32.1135 43.87 31.3548C43.9026 31.3296 43.9354 31.3046 43.9684 31.28L43.9326 31.2324ZM24.9402 33.431C24.3618 32.8115 23.8723 32.1125 23.4861 31.3548C23.4535 31.3296 23.4207 31.3047 23.3877 31.28L23.4235 31.2324C22.8092 29.9794 22.4906 28.599 22.4929 27.2C22.4929 25.7516 22.8285 24.3825 23.4235 23.1676C22.8978 22.4508 22.2379 21.846 21.4815 21.3876C20.7251 20.9292 19.887 20.6263 19.0151 20.4961C18.1432 20.3659 17.2544 20.411 16.3997 20.6289C15.545 20.8467 14.741 21.233 14.0336 21.7656C13.3262 22.2983 12.7292 22.9669 12.2769 23.7334C11.8245 24.4998 11.5255 25.349 11.397 26.2325C11.2686 27.1159 11.3131 28.0164 11.5281 28.8825C11.743 29.7485 12.1243 30.5632 12.65 31.28C11.1231 32.437 10.0016 34.0586 9.44937 35.9077C8.89714 37.7568 8.94318 39.7364 9.58074 41.557C9.73509 41.9984 10.0205 42.3805 10.3979 42.6508C10.7752 42.9211 11.2259 43.0664 11.688 43.0666H18.2023C18.5393 41.0516 19.3198 39.1393 20.4859 37.4716C21.6519 35.804 23.1736 34.4237 24.938 33.4333L24.9402 33.431Z" fill="#C8CAD5"/>
<circle cx="34" cy="34" r="32.5" stroke="#C8CAD5" stroke-width="3"/>
<circle cx="57.5" cy="60.5" r="9.5" fill="white"/>
<path fill-rule="evenodd" clip-rule="evenodd" d="M58 50C52.48 50 48 54.48 48 60C48 65.52 52.48 70 58 70C63.52 70 68 65.52 68 60C68 54.48 63.52 50 58 50ZM58 55C57.45 55 57 55.45 57 56V59H54C53.45 59 53 59.45 53 60C53 60.55 53.45 61 54 61H57V64C57 64.55 57.45 65 58 65C58.55 65 59 64.55 59 64V61H62C62.55 61 63 60.55 63 60C63 59.45 62.55 59 62 59H59V56C59 55.45 58.55 55 58 55ZM50 60C50 64.41 53.59 68 58 68C62.41 68 66 64.41 66 60C66 55.59 62.41 52 58 52C53.59 52 50 55.59 50 60Z" fill="#C8CAD5"/>
</svg>
