<svg width="42" height="45" viewBox="0 0 42 45" fill="none" xmlns="http://www.w3.org/2000/svg">
<mask id="path-1-inside-1_73_463" fill="white">
<path d="M19.5246 0.00604955C10.1437 -0.2328 1.73758 6.62754 0.252558 15.8942C-0.858614 22.8313 1.78412 29.2029 6.46247 33.3205C7.89903 34.584 8.65301 36.4533 8.65301 38.3675V45H25.961V42.3024C25.961 40.8122 26.9132 39.4907 28.3273 39.02L33.9794 37.137C35.3918 36.6645 36.3457 35.3414 36.3457 33.8512V27.2492L40.2705 25.897C40.6348 25.7958 40.956 25.5781 41.1849 25.2772C41.4138 24.9762 41.5379 24.6086 41.5381 24.2304C41.5369 23.8322 41.3984 23.4466 41.146 23.1385L41.0987 23.0811C41.0822 23.0616 41.0653 23.0424 41.048 23.0236L36.2748 17.3039C35.5811 7.76209 29.1833 0.249355 19.5246 0.00604955ZM24.2302 6.92247C25.1873 6.92247 25.961 7.69614 25.961 8.65327V8.97103C26.5633 9.18565 27.1076 9.50407 27.5836 9.9108L27.8608 9.75192C28.6829 9.27249 29.7477 9.55502 30.2271 10.3841C30.7048 11.2131 30.4189 12.2693 29.5916 12.747L29.3279 12.8991C29.385 13.2072 29.4226 13.522 29.4226 13.8457C29.4226 14.1693 29.385 14.4841 29.3279 14.7922L29.5916 14.9443C30.4206 15.422 30.7065 16.4799 30.2271 17.3073C29.9052 17.8628 29.325 18.1727 28.7262 18.1727C28.432 18.1727 28.1325 18.0969 27.8608 17.9394L27.5836 17.7805C27.1076 18.1873 26.5633 18.5057 25.961 18.7203V19.038C25.961 19.9952 25.1873 20.7688 24.2302 20.7688C23.273 20.7688 22.4994 19.9952 22.4994 19.038V18.7203C21.8971 18.5057 21.3527 18.1873 20.8768 17.7805L20.5996 17.9394C20.3278 18.0969 20.0284 18.1727 19.7342 18.1727C19.1353 18.1727 18.5534 17.8628 18.2332 17.3073C17.7555 16.4782 18.0414 15.422 18.8688 14.9443L19.1324 14.7922C19.0753 14.4841 19.0378 14.1693 19.0378 13.8457C19.0378 13.522 19.0753 13.2072 19.1324 12.8991L18.8688 12.747C18.0414 12.2693 17.7555 11.2131 18.2332 10.3841C18.7109 9.55502 19.774 9.27249 20.5996 9.75192L20.8768 9.9108C21.3527 9.50407 21.8971 9.18392 22.4994 8.97103V8.65327C22.4994 7.69614 23.273 6.92247 24.2302 6.92247ZM24.2302 12.1149C23.7711 12.1149 23.3309 12.2972 23.0063 12.6218C22.6817 12.9464 22.4994 13.3866 22.4994 13.8457C22.4994 14.3047 22.6817 14.7449 23.0063 15.0695C23.3309 15.3941 23.7711 15.5765 24.2302 15.5765C24.6892 15.5765 25.1294 15.3941 25.454 15.0695C25.7786 14.7449 25.961 14.3047 25.961 13.8457C25.961 13.3866 25.7786 12.9464 25.454 12.6218C25.1294 12.2972 24.6892 12.1149 24.2302 12.1149ZM13.8454 17.3073C14.8025 17.3073 15.5762 18.0809 15.5762 19.038V19.3558C16.1785 19.5704 16.7228 19.8888 17.1988 20.2956L17.476 20.1367C18.3016 19.6607 19.3629 19.9398 19.8423 20.7688C20.32 21.5979 20.0341 22.6541 19.2068 23.1318L18.9431 23.2839C19.0002 23.592 19.0378 23.9068 19.0378 24.2304C19.0378 24.5541 19.0002 24.8689 18.9431 25.177L19.2068 25.3291C20.0359 25.8068 20.3218 26.8647 19.8423 27.692C19.5204 28.2476 18.9403 28.5574 18.3414 28.5574C18.0472 28.5574 17.7477 28.4817 17.476 28.3242L17.1988 28.1653C16.7228 28.572 16.1785 28.8904 15.5762 29.1051V29.4228C15.5762 30.38 14.8025 31.1536 13.8454 31.1536C12.8883 31.1536 12.1146 30.38 12.1146 29.4228V29.1051C11.5123 28.8904 10.9679 28.572 10.492 28.1653L10.2148 28.3242C9.94304 28.4817 9.64362 28.5574 9.34938 28.5574C8.75052 28.5574 8.16865 28.2476 7.84845 27.692C7.37076 26.863 7.65666 25.8068 8.48398 25.3291L8.74766 25.177C8.69054 24.8689 8.65301 24.5541 8.65301 24.2304C8.65301 23.9068 8.69054 23.592 8.74766 23.2839L8.48398 23.1318C7.65666 22.6541 7.37076 21.5979 7.84845 20.7688C8.32615 19.9398 9.38746 19.659 10.2148 20.1367L10.492 20.2956C10.9679 19.8888 11.5123 19.5704 12.1146 19.3558V19.038C12.1146 18.0809 12.8883 17.3073 13.8454 17.3073ZM13.8454 22.4996C13.3864 22.4996 12.9461 22.682 12.6215 23.0066C12.2969 23.3312 12.1146 23.7714 12.1146 24.2304C12.1146 24.6895 12.2969 25.1297 12.6215 25.4543C12.9461 25.7789 13.3864 25.9612 13.8454 25.9612C14.3044 25.9612 14.7447 25.7789 15.0693 25.4543C15.3938 25.1297 15.5762 24.6895 15.5762 24.2304C15.5762 23.7714 15.3938 23.3312 15.0693 23.0066C14.7447 22.682 14.3044 22.4996 13.8454 22.4996Z"/>
</mask>
<path d="M19.5246 0.00604955C10.1437 -0.2328 1.73758 6.62754 0.252558 15.8942C-0.858614 22.8313 1.78412 29.2029 6.46247 33.3205C7.89903 34.584 8.65301 36.4533 8.65301 38.3675V45H25.961V42.3024C25.961 40.8122 26.9132 39.4907 28.3273 39.02L33.9794 37.137C35.3918 36.6645 36.3457 35.3414 36.3457 33.8512V27.2492L40.2705 25.897C40.6348 25.7958 40.956 25.5781 41.1849 25.2772C41.4138 24.9762 41.5379 24.6086 41.5381 24.2304C41.5369 23.8322 41.3984 23.4466 41.146 23.1385L41.0987 23.0811C41.0822 23.0616 41.0653 23.0424 41.048 23.0236L36.2748 17.3039C35.5811 7.76209 29.1833 0.249355 19.5246 0.00604955ZM24.2302 6.92247C25.1873 6.92247 25.961 7.69614 25.961 8.65327V8.97103C26.5633 9.18565 27.1076 9.50407 27.5836 9.9108L27.8608 9.75192C28.6829 9.27249 29.7477 9.55502 30.2271 10.3841C30.7048 11.2131 30.4189 12.2693 29.5916 12.747L29.3279 12.8991C29.385 13.2072 29.4226 13.522 29.4226 13.8457C29.4226 14.1693 29.385 14.4841 29.3279 14.7922L29.5916 14.9443C30.4206 15.422 30.7065 16.4799 30.2271 17.3073C29.9052 17.8628 29.325 18.1727 28.7262 18.1727C28.432 18.1727 28.1325 18.0969 27.8608 17.9394L27.5836 17.7805C27.1076 18.1873 26.5633 18.5057 25.961 18.7203V19.038C25.961 19.9952 25.1873 20.7688 24.2302 20.7688C23.273 20.7688 22.4994 19.9952 22.4994 19.038V18.7203C21.8971 18.5057 21.3527 18.1873 20.8768 17.7805L20.5996 17.9394C20.3278 18.0969 20.0284 18.1727 19.7342 18.1727C19.1353 18.1727 18.5534 17.8628 18.2332 17.3073C17.7555 16.4782 18.0414 15.422 18.8688 14.9443L19.1324 14.7922C19.0753 14.4841 19.0378 14.1693 19.0378 13.8457C19.0378 13.522 19.0753 13.2072 19.1324 12.8991L18.8688 12.747C18.0414 12.2693 17.7555 11.2131 18.2332 10.3841C18.7109 9.55502 19.774 9.27249 20.5996 9.75192L20.8768 9.9108C21.3527 9.50407 21.8971 9.18392 22.4994 8.97103V8.65327C22.4994 7.69614 23.273 6.92247 24.2302 6.92247ZM24.2302 12.1149C23.7711 12.1149 23.3309 12.2972 23.0063 12.6218C22.6817 12.9464 22.4994 13.3866 22.4994 13.8457C22.4994 14.3047 22.6817 14.7449 23.0063 15.0695C23.3309 15.3941 23.7711 15.5765 24.2302 15.5765C24.6892 15.5765 25.1294 15.3941 25.454 15.0695C25.7786 14.7449 25.961 14.3047 25.961 13.8457C25.961 13.3866 25.7786 12.9464 25.454 12.6218C25.1294 12.2972 24.6892 12.1149 24.2302 12.1149ZM13.8454 17.3073C14.8025 17.3073 15.5762 18.0809 15.5762 19.038V19.3558C16.1785 19.5704 16.7228 19.8888 17.1988 20.2956L17.476 20.1367C18.3016 19.6607 19.3629 19.9398 19.8423 20.7688C20.32 21.5979 20.0341 22.6541 19.2068 23.1318L18.9431 23.2839C19.0002 23.592 19.0378 23.9068 19.0378 24.2304C19.0378 24.5541 19.0002 24.8689 18.9431 25.177L19.2068 25.3291C20.0359 25.8068 20.3218 26.8647 19.8423 27.692C19.5204 28.2476 18.9403 28.5574 18.3414 28.5574C18.0472 28.5574 17.7477 28.4817 17.476 28.3242L17.1988 28.1653C16.7228 28.572 16.1785 28.8904 15.5762 29.1051V29.4228C15.5762 30.38 14.8025 31.1536 13.8454 31.1536C12.8883 31.1536 12.1146 30.38 12.1146 29.4228V29.1051C11.5123 28.8904 10.9679 28.572 10.492 28.1653L10.2148 28.3242C9.94304 28.4817 9.64362 28.5574 9.34938 28.5574C8.75052 28.5574 8.16865 28.2476 7.84845 27.692C7.37076 26.863 7.65666 25.8068 8.48398 25.3291L8.74766 25.177C8.69054 24.8689 8.65301 24.5541 8.65301 24.2304C8.65301 23.9068 8.69054 23.592 8.74766 23.2839L8.48398 23.1318C7.65666 22.6541 7.37076 21.5979 7.84845 20.7688C8.32615 19.9398 9.38746 19.659 10.2148 20.1367L10.492 20.2956C10.9679 19.8888 11.5123 19.5704 12.1146 19.3558V19.038C12.1146 18.0809 12.8883 17.3073 13.8454 17.3073ZM13.8454 22.4996C13.3864 22.4996 12.9461 22.682 12.6215 23.0066C12.2969 23.3312 12.1146 23.7714 12.1146 24.2304C12.1146 24.6895 12.2969 25.1297 12.6215 25.4543C12.9461 25.7789 13.3864 25.9612 13.8454 25.9612C14.3044 25.9612 14.7447 25.7789 15.0693 25.4543C15.3938 25.1297 15.5762 24.6895 15.5762 24.2304C15.5762 23.7714 15.3938 23.3312 15.0693 23.0066C14.7447 22.682 14.3044 22.4996 13.8454 22.4996Z" fill="#F5F5F7" stroke="#999999" stroke-width="5" mask="url(#path-1-inside-1_73_463)"/>
</svg>
