<svg xmlns="http://www.w3.org/2000/svg" width="44" height="34" viewBox="0 0 44 34">
  <g id="ic_outline-insights" transform="translate(-2 -6)">
    <path id="Path_3" data-name="Path 3" d="M42,16a4.007,4.007,0,0,0-3.86,5.02l-7.1,7.12a4.073,4.073,0,0,0-2.08,0l-5.1-5.1a4,4,0,1,0-7.72,0l-9.12,9.1a4,4,0,1,0,2.84,2.84l9.1-9.12a4.073,4.073,0,0,0,2.08,0l5.1,5.1a4,4,0,1,0,7.72,0l7.12-7.1A4,4,0,1,0,42,16Z" fill="#999"/>
    <path id="Path_4" data-name="Path 4" d="M30,18l1.88-4.14L36,12l-4.12-1.86L30,6l-1.84,4.14L24,12l4.16,1.86ZM7,22l1-4,4-1L8,16,7,12,6,16,2,17l4,1Z" fill="#999"/>
  </g>
</svg>
