<svg width="32" height="20" viewBox="0 0 32 20" fill="none" xmlns="http://www.w3.org/2000/svg">
<path d="M27.7712 3.54897V8.38119H6.50922L11.1588 3.74226C11.7884 3.11407 11.7884 2.09931 11.1588 1.47112C10.8571 1.1695 10.4476 1 10.0206 1C9.59354 1 9.18404 1.1695 8.88242 1.47112L1.47222 8.86442C0.842594 9.4926 0.842594 10.5074 1.47222 11.1356L8.88242 18.5289C9.51204 19.157 10.5291 19.157 11.1588 18.5289C11.7884 17.9007 11.7884 16.8859 11.1588 16.2577L6.50922 11.6027H29.3856C30.2735 11.6027 31 10.8778 31 9.99193V3.54897C31 2.66307 30.2735 1.93823 29.3856 1.93823C28.4976 1.93823 27.7712 2.66307 27.7712 3.54897Z" stroke="#999999"/>
</svg>
