<svg width="25" height="25" viewBox="0 0 25 25" fill="none" xmlns="http://www.w3.org/2000/svg">
<path d="M4.93342 18.6271L4.92208 18.385L4.72508 18.244C2.12326 16.3808 0.5 13.6274 0.5 10.5769C0.5 5.08675 5.79076 0.5 12.5 0.5C19.2092 0.5 24.5 5.08675 24.5 10.5769C24.5 16.0671 19.2092 20.6538 12.5 20.6538C11.5965 20.6538 10.718 20.5696 9.87403 20.4091L9.87322 20.409C9.10099 20.2635 8.33394 20.5358 7.794 21.0625C6.48364 22.34 4.63566 23.5019 2.49957 23.5359C4.78942 22.4454 5.00356 20.1243 4.93342 18.6271ZM9.15385 10.5769C9.15385 9.23828 8.06941 8.15385 6.73077 8.15385C5.39213 8.15385 4.30769 9.23828 4.30769 10.5769C4.30769 11.9156 5.39213 13 6.73077 13C8.06941 13 9.15385 11.9156 9.15385 10.5769ZM14.9231 10.5769C14.9231 9.23828 13.8386 8.15385 12.5 8.15385C11.1614 8.15385 10.0769 9.23828 10.0769 10.5769C10.0769 11.9156 11.1614 13 12.5 13C13.8386 13 14.9231 11.9156 14.9231 10.5769ZM20.6923 10.5769C20.6923 9.23828 19.6079 8.15385 18.2692 8.15385C16.9306 8.15385 15.8462 9.23828 15.8462 10.5769C15.8462 11.9156 16.9306 13 18.2692 13C19.6079 13 20.6923 11.9156 20.6923 10.5769Z" stroke="black" stroke-opacity="0.3"/>
</svg>
