<svg width="23" height="22" viewBox="0 0 23 22" fill="none" xmlns="http://www.w3.org/2000/svg">
<path d="M21.7048 19.0613C20.1763 17.1905 19.0971 16.2381 19.0971 11.0804C19.0971 6.35714 16.6852 4.6744 14.7001 3.85714C14.4364 3.74881 14.1882 3.5 14.1078 3.22917C13.7596 2.04405 12.7834 1 11.4858 1C10.1882 1 9.21138 2.04464 8.86674 3.23036C8.78638 3.50417 8.53817 3.74881 8.27448 3.85714C6.28698 4.6756 3.87745 6.35238 3.87745 11.0804C3.87448 16.2381 2.79531 17.1905 1.26674 19.0613C0.633404 19.8363 1.18817 21 2.2959 21H20.6816C21.7834 21 22.3346 19.8327 21.7048 19.0613Z" stroke="#999999" stroke-width="1.5" stroke-linecap="round" stroke-linejoin="round"/>
</svg>
