<svg width="39" height="39" viewBox="0 0 39 39" fill="none" xmlns="http://www.w3.org/2000/svg">
<path d="M34.9688 0.75C36.78 0.75 38.25 2.21812 38.25 4.03125V9.735C38.2501 10.6773 37.9921 11.6015 37.5038 12.4075C37.0156 13.2134 36.3159 13.8701 35.4806 14.3062L23.6681 20.475C25.5633 21.4143 27.0852 22.9668 27.9865 24.8804C28.8877 26.7939 29.1154 28.956 28.6325 31.0153C28.1496 33.0746 26.9845 34.9101 25.3266 36.2236C23.6686 37.537 21.6152 38.2512 19.5 38.25C17.3848 38.2512 15.3314 37.537 13.6734 36.2236C12.0155 34.9101 10.8504 33.0746 10.3675 31.0153C9.88457 28.956 10.1123 26.7939 11.0135 24.8804C11.9148 22.9668 13.4367 21.4143 15.3319 20.475L3.51938 14.3062C2.68415 13.8701 1.98441 13.2134 1.49617 12.4075C1.00794 11.6015 0.749868 10.6773 0.75 9.735V4.03125C0.75 2.21812 2.22 0.75 4.03125 0.75H34.9688ZM19.5 22.3125C17.7595 22.3125 16.0903 23.0039 14.8596 24.2346C13.6289 25.4653 12.9375 27.1345 12.9375 28.875C12.9375 30.6155 13.6289 32.2847 14.8596 33.5154C16.0903 34.7461 17.7595 35.4375 19.5 35.4375C21.2405 35.4375 22.9097 34.7461 24.1404 33.5154C25.3711 32.2847 26.0625 30.6155 26.0625 28.875C26.0625 27.1345 25.3711 25.4653 24.1404 24.2346C22.9097 23.0039 21.2405 22.3125 19.5 22.3125ZM27 3.5625H11.9944V15.5587L19.2825 19.365C19.3496 19.4002 19.4242 19.4185 19.5 19.4185C19.5758 19.4185 19.6504 19.4002 19.7175 19.365L27 15.5587V3.5625Z" fill="#999999"/>
</svg>
