<svg width="38" height="24" viewBox="0 0 38 24" fill="none" xmlns="http://www.w3.org/2000/svg">
<path fill-rule="evenodd" clip-rule="evenodd" d="M19.0017 3.41799e-07C17.6512 -0.00042279 16.3302 0.392027 15.2021 1.12882C14.0739 1.86562 13.1881 2.91445 12.6541 4.14563C12.12 5.3768 11.9613 6.73633 12.1974 8.05611C12.4335 9.37589 13.0542 10.598 13.9826 11.5714C12.052 12.6312 10.5127 14.275 9.58879 16.2635C8.66491 18.252 8.40474 20.4814 8.84618 22.6269C8.92546 23.0144 9.13728 23.3628 9.44575 23.613C9.75422 23.8633 10.1404 24 10.5388 24H27.4646C27.863 24 28.2491 23.8633 28.5576 23.613C28.866 23.3628 29.0779 23.0144 29.1571 22.6269C29.599 20.4811 29.339 18.2514 28.4151 16.2625C27.4912 14.2736 25.9516 12.6295 24.0207 11.5697C24.9485 10.5962 25.5687 9.37426 25.8045 8.05477C26.0403 6.73528 25.8814 5.37612 25.3475 4.14529C24.8135 2.91445 23.9279 1.86588 22.8001 1.12917C21.6723 0.392456 20.3518 -0.000105558 19.0017 3.41799e-07ZM26.9188 9.90686C27.3782 8.988 27.6373 7.95257 27.6373 6.85714C27.6373 5.76171 27.3782 4.72629 26.9188 3.80743C27.3247 3.26533 27.8341 2.80789 28.4181 2.46123C29.0021 2.11456 29.6492 1.88546 30.3223 1.78701C30.9955 1.68855 31.6817 1.72266 32.3416 1.88741C33.0015 2.05215 33.6222 2.34429 34.1684 2.74714C34.7145 3.15 35.1754 3.65569 35.5247 4.23533C35.8739 4.81498 36.1047 5.45722 36.2039 6.12541C36.3031 6.79359 36.2688 7.47463 36.1028 8.12962C35.9368 8.78462 35.6425 9.40076 35.2366 9.94286C36.0946 10.5816 36.791 11.4098 37.2707 12.362C37.7503 13.3141 38 14.364 38 15.4286V17.1429C38 17.5975 37.818 18.0335 37.4941 18.355C37.1702 18.6765 36.7309 18.8571 36.2729 18.8571H30.9482C30.6877 17.333 30.0849 15.8866 29.1843 14.6254C28.2837 13.3641 27.1086 12.3203 25.7461 11.5714C26.1934 11.1025 26.5719 10.5732 26.8704 9.99943C26.8956 9.98038 26.9209 9.96152 26.9464 9.94286L26.9188 9.90686ZM12.2555 11.5697C11.8089 11.1012 11.431 10.5725 11.1329 9.99943C11.1077 9.98039 11.0824 9.96154 11.0569 9.94286L11.0845 9.90686C10.6103 8.95925 10.3643 7.91523 10.366 6.85714C10.366 5.76171 10.6251 4.72629 11.0845 3.80743C10.6787 3.26533 10.1692 2.80789 9.5852 2.46123C9.00121 2.11456 8.35416 1.88546 7.68097 1.78701C7.00778 1.68855 6.32165 1.72266 5.66175 1.88741C5.00184 2.05215 4.38109 2.34429 3.83494 2.74714C3.28878 3.15 2.82791 3.65569 2.47865 4.23533C2.12939 4.81498 1.89858 5.45722 1.79938 6.12541C1.70019 6.79359 1.73456 7.47463 1.90053 8.12962C2.06651 8.78462 2.36084 9.40076 2.76671 9.94286C1.58789 10.8179 0.722016 12.0444 0.295668 13.4428C-0.13068 14.8413 -0.0951371 16.3384 0.397099 17.7154C0.516264 18.0492 0.736653 18.3382 1.02798 18.5426C1.3193 18.7471 1.66727 18.8569 2.02405 18.8571H7.05343C7.31366 17.3332 7.91626 15.8869 8.81651 14.6256C9.71677 13.3644 10.8916 12.3205 12.2538 11.5714L12.2555 11.5697Z" fill="#999999"/>
</svg>
