<svg width="17" height="16" viewBox="0 0 17 16" fill="none" xmlns="http://www.w3.org/2000/svg">
<path d="M1.30769 15.68L1.55769 15.6803C1.55771 15.6673 1.56171 15.6542 1.56988 15.6426C1.57809 15.631 1.59035 15.6212 1.60562 15.6155L1.61763 15.6111L1.62758 15.6062C3.1615 14.911 3.3127 13.4024 3.26481 12.4018L3.25895 12.2794L3.15859 12.209C1.36968 10.9551 0.25 9.09918 0.25 7.04C0.25 3.33209 3.8973 0.25 8.5 0.25C13.1027 0.25 16.75 3.33209 16.75 7.04C16.75 10.7479 13.1027 13.83 8.5 13.83C7.87969 13.83 7.27638 13.7734 6.69658 13.6655L6.69618 13.6654C6.20478 13.5748 5.71323 13.7438 5.3646 14.0767C4.4574 14.9424 3.16453 15.7393 1.66114 15.7488L1.6511 15.7488L1.6411 15.7497L1.63409 15.75C1.61219 15.7499 1.59224 15.7412 1.57832 15.7276C1.56447 15.7141 1.55769 15.6968 1.55769 15.68H1.30769ZM1.30769 15.68C1.30769 15.7649 1.34214 15.8463 1.40345 15.9063C1.46476 15.9663 1.54791 16 1.63462 16L3.0151 12.4137C3.06214 13.3968 2.90653 14.7542 1.52096 15.38L1.5184 15.3812C1.4565 15.4043 1.40321 15.4452 1.36558 15.4985C1.32795 15.5519 1.30776 15.6152 1.30769 15.68ZM6.13462 7.04C6.13462 6.18971 5.43242 5.51 4.57692 5.51C3.72142 5.51 3.01923 6.18971 3.01923 7.04C3.01923 7.89029 3.72142 8.57 4.57692 8.57C5.43242 8.57 6.13462 7.89029 6.13462 7.04ZM10.0577 7.04C10.0577 6.18971 9.3555 5.51 8.5 5.51C7.6445 5.51 6.94231 6.18971 6.94231 7.04C6.94231 7.89029 7.6445 8.57 8.5 8.57C9.3555 8.57 10.0577 7.89029 10.0577 7.04ZM13.9808 7.04C13.9808 6.18971 13.2786 5.51 12.4231 5.51C11.5676 5.51 10.8654 6.18971 10.8654 7.04C10.8654 7.89029 11.5676 8.57 12.4231 8.57C13.2786 8.57 13.9808 7.89029 13.9808 7.04Z" stroke="#767A96" stroke-width="0.5"/>
</svg>
