<svg width="50" height="32" viewBox="0 0 50 32" fill="none" xmlns="http://www.w3.org/2000/svg">
<path fill-rule="evenodd" clip-rule="evenodd" d="M24.6783 0.133301C22.9292 0.132742 21.2182 0.651647 19.757 1.62586C18.2957 2.60006 17.1483 3.98685 16.4567 5.61474C15.765 7.24263 15.5594 9.04023 15.8652 10.7853C16.171 12.5303 16.9749 14.1463 18.1775 15.4333C15.6769 16.8345 13.6831 19.008 12.4864 21.6373C11.2898 24.2665 10.9528 27.2142 11.5246 30.051C11.6272 30.5634 11.9016 31.0241 12.3011 31.355C12.7007 31.6859 13.2008 31.8666 13.7169 31.8666H35.6398C36.1558 31.8666 36.656 31.6859 37.0555 31.355C37.455 31.0241 37.7294 30.5634 37.8321 30.051C38.4044 27.2139 38.0676 24.2657 36.871 21.636C35.6743 19.0062 33.6802 16.8324 31.1791 15.431C32.381 14.1439 33.1842 12.5281 33.4896 10.7835C33.7951 9.03883 33.5893 7.24173 32.8977 5.61429C32.2061 3.98685 31.059 2.60041 29.5983 1.62631C28.1375 0.652214 26.4271 0.133161 24.6783 0.133301ZM34.9329 13.2324C35.5279 12.0174 35.8635 10.6484 35.8635 9.19997C35.8635 7.75157 35.5279 6.3825 34.9329 5.16757C35.4586 4.4508 36.1185 3.84596 36.8749 3.38759C37.6313 2.92922 38.4694 2.6263 39.3413 2.49612C40.2132 2.36594 41.102 2.41105 41.9567 2.62887C42.8114 2.84669 43.6154 3.23297 44.3228 3.76563C45.0302 4.2983 45.6272 4.96693 46.0795 5.73335C46.5319 6.49977 46.8309 7.34896 46.9594 8.23245C47.0878 9.11594 47.0433 10.0164 46.8283 10.8825C46.6134 11.7485 46.2321 12.5632 45.7064 13.28C46.8178 14.1245 47.7198 15.2196 48.341 16.4786C48.9623 17.7375 49.2857 19.1257 49.2857 20.5333V22.8C49.2857 23.4011 49.05 23.9777 48.6305 24.4027C48.211 24.8278 47.642 25.0666 47.0487 25.0666H40.1519C39.8146 23.0514 39.0337 21.139 37.8673 19.4713C36.7008 17.8036 35.1787 16.4235 33.4139 15.4333C33.9933 14.8132 34.4836 14.1135 34.8703 13.3548C34.9029 13.3296 34.9357 13.3046 34.9687 13.28L34.9329 13.2324ZM15.9405 15.431C15.362 14.8115 14.8726 14.1125 14.4864 13.3548C14.4538 13.3296 14.4209 13.3047 14.388 13.28L14.4238 13.2324C13.8095 11.9794 13.4909 10.599 13.4932 9.19997C13.4932 7.75157 13.8287 6.3825 14.4238 5.16757C13.8981 4.4508 13.2382 3.84596 12.4818 3.38759C11.7254 2.92922 10.8873 2.6263 10.0153 2.49612C9.1434 2.36594 8.25469 2.41105 7.39996 2.62887C6.54523 2.84669 5.74121 3.23297 5.03381 3.76563C4.3264 4.2983 3.72947 4.96693 3.2771 5.73335C2.82472 6.49977 2.52576 7.34896 2.39728 8.23245C2.2688 9.11594 2.31332 10.0164 2.5283 10.8825C2.74327 11.7485 3.1245 12.5632 3.6502 13.28C2.12335 14.437 1.00183 16.0586 0.449611 17.9077C-0.102611 19.7568 -0.0565749 21.7364 0.580989 23.557C0.735336 23.9984 1.02079 24.3805 1.39813 24.6508C1.77546 24.9211 2.22616 25.0664 2.68828 25.0666H9.20252C9.53958 23.0516 10.3201 21.1393 11.4861 19.4716C12.6522 17.804 14.1738 16.4237 15.9382 15.4333L15.9405 15.431Z" fill="#999999" fill-opacity="0.3"/>
</svg>
